<svg width="24" height="24" viewBox="0 0 24 24" fill="none" xmlns="http://www.w3.org/2000/svg">
<path fill-rule="evenodd" clip-rule="evenodd" d="M20.2919 3.51634C20.4884 3.71252 20.5895 3.98472 20.5688 4.26165L19.9973 11.8807C19.9693 12.2543 19.7249 12.5767 19.3728 12.7046C19.0207 12.8325 18.6263 12.7421 18.365 12.4736L11.5079 5.426C11.2502 5.16111 11.169 4.77105 11.2995 4.42532C11.4301 4.07958 11.749 3.84062 12.1174 3.81227L19.546 3.24085C19.8229 3.21955 20.0953 3.32016 20.2919 3.51634ZM14.2914 5.55543L18.256 9.63017L18.5864 5.22505L14.2914 5.55543Z" fill="white"/>
<path fill-rule="evenodd" clip-rule="evenodd" d="M4.4254 11.2995C4.77113 11.1689 5.1612 11.2501 5.42608 11.5078L12.4737 18.365C12.7422 18.6262 12.8326 19.0206 12.7047 19.3727C12.5768 19.7249 12.2544 19.9693 11.8808 19.9973L4.26173 20.5687C3.9848 20.5895 3.7126 20.4884 3.51642 20.2918C3.32024 20.0953 3.21963 19.8229 3.24093 19.546L3.81236 12.1174C3.8407 11.7489 4.07967 11.4301 4.4254 11.2995ZM5.55552 14.2914L5.22513 18.5864L9.63025 18.256L5.55552 14.2914Z" fill="white"/>
</svg>
