<svg width="24" height="24" viewBox="0 0 24 24" fill="none" xmlns="http://www.w3.org/2000/svg">
<path fill-rule="evenodd" clip-rule="evenodd" d="M12 1.90476C6.42455 1.90476 1.90476 6.42455 1.90476 12C1.90476 17.5754 6.42455 22.0952 12 22.0952C17.5754 22.0952 22.0952 17.5754 22.0952 12C22.0952 6.42455 17.5754 1.90476 12 1.90476ZM0 12C0 5.37258 5.37258 0 12 0C18.6274 0 24 5.37258 24 12C24 18.6274 18.6274 24 12 24C5.37258 24 0 18.6274 0 12Z" fill="white"/>
<path fill-rule="evenodd" clip-rule="evenodd" d="M9.69262 6.1845C10.028 6.02806 10.4237 6.08008 10.7072 6.3179L16.612 11.2703C16.8302 11.4533 16.9551 11.7244 16.9523 12.0092C16.9496 12.2939 16.8195 12.5626 16.5978 12.7413L10.6931 17.5032C10.4076 17.7335 10.0152 17.7793 9.68434 17.6211C9.35345 17.4629 9.14283 17.1287 9.14283 16.7619V7.04761C9.14283 6.67752 9.35723 6.34095 9.69262 6.1845ZM11.0476 9.08939V14.7704L14.5007 11.9856L11.0476 9.08939Z" fill="white"/>
</svg>
