<svg width="24" height="24" viewBox="0 0 24 24" fill="none" xmlns="http://www.w3.org/2000/svg">
<path fill-rule="evenodd" clip-rule="evenodd" d="M12 1.90476C6.42455 1.90476 1.90476 6.42455 1.90476 12C1.90476 17.5754 6.42455 22.0952 12 22.0952C17.5754 22.0952 22.0952 17.5754 22.0952 12C22.0952 6.42455 17.5754 1.90476 12 1.90476ZM0 12C0 5.37258 5.37258 0 12 0C18.6274 0 24 5.37258 24 12C24 18.6274 18.6274 24 12 24C5.37258 24 0 18.6274 0 12Z" fill="white"/>
<path fill-rule="evenodd" clip-rule="evenodd" d="M7.42856 8.38095C7.42856 7.85497 7.85495 7.42857 8.38094 7.42857H15.4286C15.9545 7.42857 16.3809 7.85497 16.3809 8.38095V15.4286C16.3809 15.9546 15.9545 16.381 15.4286 16.381H8.38094C7.85495 16.381 7.42856 15.9546 7.42856 15.4286V8.38095ZM9.33332 9.33334V14.4762H14.4762V9.33334H9.33332Z" fill="white"/>
</svg>
