<svg width="131" height="50" viewBox="0 0 131 50" fill="none" xmlns="http://www.w3.org/2000/svg">
<path d="M130.064 0H0V33.1666H131V0H130.064ZM2.84486 30.3274H2.83918V2.83919H62.4028V30.3274H2.84486ZM65.2613 30.3274V2.83919H128.171V30.3274H65.2613Z" fill="#25292D"/>
<path d="M126.049 25.7654C126.147 25.7654 126.235 25.7556 126.235 25.6393C126.235 25.5419 126.14 25.5304 126.06 25.5304H125.901V25.7654H126.049ZM125.901 26.2207H125.769V25.4184H126.073C126.267 25.4184 126.366 25.4859 126.366 25.6485C126.368 25.677 126.364 25.7055 126.355 25.7324C126.345 25.7593 126.33 25.7838 126.31 25.8045C126.291 25.8252 126.267 25.8415 126.24 25.8525C126.214 25.8635 126.186 25.8688 126.157 25.8682L126.383 26.2207H126.233L126.026 25.8786H125.902L125.901 26.2207ZM126.045 25.2065C125.968 25.207 125.892 25.2232 125.822 25.2541C125.752 25.285 125.688 25.3299 125.636 25.3861C125.584 25.4423 125.543 25.5086 125.518 25.581C125.492 25.6533 125.481 25.7301 125.486 25.8068C125.494 25.9149 125.534 26.0182 125.6 26.1042C125.666 26.1902 125.756 26.2551 125.858 26.2909C125.96 26.3267 126.071 26.332 126.176 26.306C126.281 26.28 126.377 26.2239 126.451 26.1445C126.524 26.0651 126.574 25.966 126.592 25.8591C126.61 25.7523 126.597 25.6424 126.554 25.5429C126.511 25.4434 126.44 25.3586 126.35 25.2988C126.259 25.2391 126.153 25.207 126.045 25.2065ZM126.045 26.5312C125.901 26.5342 125.759 26.4942 125.638 26.4162C125.516 26.3383 125.421 26.226 125.364 26.0937C125.307 25.9613 125.29 25.8149 125.316 25.6732C125.343 25.5315 125.411 25.4008 125.512 25.2978C125.613 25.1949 125.742 25.1244 125.883 25.0953C126.024 25.0662 126.171 25.0798 126.305 25.1344C126.438 25.189 126.552 25.2821 126.632 25.4019C126.713 25.5216 126.755 25.6626 126.755 25.8068C126.759 25.9017 126.743 25.9963 126.709 26.085C126.675 26.1736 126.623 26.2542 126.556 26.3221C126.49 26.3899 126.41 26.4434 126.322 26.4794C126.234 26.5153 126.14 26.533 126.045 26.5312Z" fill="#25292D"/>
<path d="M17.2078 15.9222C17.1299 13.2035 14.4897 11.6562 12.0534 11.6562C8.63941 11.6562 6.42348 14.2627 6.42348 17.5376C6.42348 20.8106 8.63941 23.4195 12.0534 23.4195C14.9171 23.4195 17.0496 21.7107 17.2079 18.802H14.2675C14.1579 20.0969 13.3677 20.8907 11.9913 20.8907C10.0928 20.8907 9.36567 19.2129 9.36567 17.5376C9.36567 15.8616 10.0928 14.1842 11.9913 14.1842C13.2234 14.1842 14.1098 14.785 14.2675 15.9222H17.2078Z" fill="#25292D"/>
<path d="M17.5799 11.8911H20.268V23.1814H17.5799V11.8911Z" fill="#25292D"/>
<path d="M23.2322 20.8238C23.2322 20.1767 23.7363 19.9232 24.3365 19.7813C24.924 19.6227 25.6198 19.5762 25.996 19.3409C26.0612 21.0329 25.6353 21.7574 24.3539 21.7574C23.7524 21.7574 23.2322 21.4901 23.2322 20.8238H23.2322ZM23.3881 17.5048C23.5153 16.8084 23.9895 16.4751 24.7323 16.4751C25.2877 16.4751 26.0295 16.7168 26.0295 17.3295C26.0295 17.8357 25.7775 17.9949 25.3161 18.0896C23.4532 18.4688 20.5427 18.2627 20.5427 20.935C20.5427 22.6286 21.7785 23.4196 23.3421 23.4196C23.8375 23.4399 24.332 23.3606 24.7963 23.1867C25.2605 23.0127 25.6853 22.7474 26.0454 22.4066C26.0663 22.6705 26.1199 22.9307 26.2049 23.1813H28.9072C28.5921 22.5311 28.5921 21.7741 28.5921 21.0774V17.4884C28.5921 15.1659 26.7095 14.7367 24.7639 14.7367C23.8603 14.7062 22.9634 14.9026 22.1553 15.3081C21.7663 15.5277 21.4427 15.8469 21.218 16.233C20.9932 16.6191 20.8752 17.0581 20.8763 17.5048H23.3881Z" fill="#25292D"/>
<path d="M36.8964 14.9729H34.1463L32.5961 20.3204H32.5644L31.0175 14.9729H28.1703L30.2895 20.6847C30.4459 21.127 30.9682 22.3905 30.9682 22.8327C30.9682 23.4023 30.5104 23.7511 29.8956 23.7511H28.9623V25.9332H30.2237C32.0433 25.9332 33.0094 25.7098 33.6559 23.9097L36.8964 14.9729H36.8964Z" fill="#25292D"/>
<path d="M41.4439 14.9728H39.7795V12.4927H37.0943V14.9728H35.7349V16.7167H37.0943V20.3668C37.0943 22.5971 37.6781 23.26 39.9713 23.26C40.4632 23.26 40.952 23.1967 41.4439 23.1812V21.2036C41.2059 21.2036 40.966 21.2349 40.7487 21.2349C40.1618 21.2349 39.7795 21.0943 39.7795 20.4463V16.7167H41.4439V14.9728H41.4439Z" fill="#25292D"/>
<path d="M43.7573 19.0866C43.7573 18.0404 44.1365 16.7933 45.3863 16.7933C46.6349 16.7933 47.0309 18.0404 47.0309 19.0866C47.0309 20.1309 46.6349 21.3631 45.3863 21.3631C44.1365 21.3631 43.7573 20.1309 43.7573 19.0866ZM41.0689 19.0866C41.0689 21.5521 42.8411 23.4195 45.3863 23.4195C47.931 23.4195 49.7178 21.5521 49.7178 19.0866C49.7178 16.6195 47.931 14.7366 45.3863 14.7366C42.8411 14.7366 41.0689 16.6195 41.0689 19.0866Z" fill="#25292D"/>
<path d="M49.9457 23.1811H52.6338V18.7058C52.6338 17.8042 53.0773 16.9525 54.0893 16.9525C55.5601 16.9525 55.4329 18.0894 55.4329 19.2129V23.1811H58.1206V17.9144C58.1206 16.7315 57.8996 14.7366 55.1632 14.7366C54.1843 14.7366 53.0773 15.2589 52.5869 16.0978H52.5571V14.9728H49.9457V23.1811Z" fill="#25292D"/>
<path d="M24.5302 12.8691L38.4904 7.50049L52.2672 12.8691V13.8707L38.399 10.9208L24.5302 13.8707V12.8691Z" fill="#25292D"/>
<path d="M83.0869 15.6222C83.9026 15.2606 84.6068 14.6875 85.1268 13.9624C85.6087 13.2083 85.8491 12.3252 85.8159 11.4309C85.8415 10.618 85.6828 9.80988 85.3517 9.06706C85.0591 8.44938 84.6078 7.92044 84.0439 7.5343C83.4293 7.12823 82.7412 6.8463 82.0183 6.70439C81.1575 6.52843 80.2806 6.44363 79.4021 6.45142H68.8526V9.88324H69.9491V23.1058H68.8526V26.5376H79.6831C80.5709 26.5394 81.4551 26.4259 82.3136 26.1999C83.1293 25.9922 83.901 25.6397 84.5922 25.1594C85.2589 24.6895 85.8038 24.0673 86.1816 23.3444C86.5925 22.53 86.7954 21.6264 86.7723 20.7145C86.8053 19.5724 86.4862 18.4478 85.8582 17.4933C85.1867 16.5596 84.204 15.8961 83.0869 15.6222ZM74.9412 9.88324H78.5018C78.8836 9.8824 79.2647 9.91534 79.6407 9.98169C79.9829 10.0389 80.3119 10.158 80.6114 10.3331C80.8945 10.5042 81.1274 10.7468 81.2868 11.0365C81.4685 11.393 81.5556 11.7901 81.5398 12.1898C81.5398 13.034 81.2866 13.6438 80.7803 14.0191C80.2118 14.4127 79.5303 14.61 78.8395 14.5811H74.3659V9.88324H74.9412ZM82.0887 21.755C81.9221 22.0794 81.675 22.3555 81.371 22.5569C81.0534 22.7611 80.7005 22.9041 80.3305 22.9787C79.9234 23.0647 79.5084 23.1073 79.0924 23.1058H74.3659V17.5917H79.1766C79.9974 17.5514 80.8086 17.7836 81.4837 18.2522C82.0647 18.6935 82.3555 19.4297 82.356 20.4609C82.3729 20.9076 82.2812 21.3516 82.0887 21.755Z" fill="#25292D"/>
<path d="M101.252 11.9929H96.1459V15.4248H97.2567V19.6167C97.2567 21.0991 97.0129 22.1637 96.5253 22.8104C96.0376 23.4572 95.25 23.7806 94.1625 23.7806C93.2056 23.7806 92.6874 23.4852 92.3125 22.8946C91.937 22.3033 91.7495 21.4078 91.7499 20.2079V11.9929H86.5025V15.4248H87.6074V20.9394C87.5999 21.7661 87.6801 22.5913 87.8466 23.4011C87.9798 24.083 88.2633 24.7267 88.6765 25.2853C89.0983 25.8223 89.657 26.2355 90.294 26.4815C91.1357 26.7893 92.0288 26.9326 92.9246 26.9033C93.7811 26.9004 94.6264 26.7082 95.4 26.3407C96.2277 25.9463 96.9149 25.3082 97.3694 24.512H97.4536V26.5376H102.357V23.1057H101.252L101.252 11.9929Z" fill="#25292D"/>
<path d="M108.094 11.9929H107.863H104.1H102.995V15.4249H104.1V23.1057H102.965V26.5377H104.1H108.094H109.199V23.1057H108.094V11.9929Z" fill="#25292D"/>
<path d="M114.896 6.45142H114.775H110.902H109.797V9.88313H110.902V23.1057H109.797V26.5377H110.902H114.896H116.001V23.1057H114.896V6.45142Z" fill="#25292D"/>
<path d="M124.612 15.4248V11.993H121.687V7.63281H117.692V11.993H115.747V15.4248H117.692V23.2461C117.666 23.858 117.791 24.4669 118.058 25.0186C118.286 25.4527 118.632 25.8134 119.056 26.0592C119.509 26.3135 120.005 26.4805 120.519 26.5514C121.101 26.6382 121.689 26.6807 122.278 26.6785C122.671 26.6785 123.074 26.6689 123.487 26.6498C123.864 26.635 124.24 26.5975 124.612 26.5377V23.4435C124.417 23.4822 124.22 23.5101 124.021 23.5271C123.815 23.5466 123.6 23.5557 123.375 23.5557C122.699 23.5557 122.249 23.4431 122.024 23.218C121.799 22.9931 121.687 22.543 121.687 21.8678V15.4248H124.612Z" fill="#25292D"/>
<path d="M108.042 6.45142H104.155V9.31111H108.042V6.45142Z" fill="#25292D"/>
<path d="M11.5649 48.144C11.0369 48.144 10.5529 48.052 10.1129 47.868C9.68094 47.676 9.30894 47.404 8.99694 47.052C8.68494 46.7 8.44094 46.272 8.26494 45.768C8.09694 45.264 8.01294 44.692 8.01294 44.052C8.01294 43.412 8.09694 42.844 8.26494 42.348C8.44094 41.844 8.68494 41.424 8.99694 41.088C9.30894 40.744 9.68094 40.484 10.1129 40.308C10.5529 40.124 11.0369 40.032 11.5649 40.032C12.0929 40.032 12.5729 40.124 13.0049 40.308C13.4449 40.484 13.8209 40.744 14.1329 41.088C14.4449 41.432 14.6849 41.856 14.8529 42.36C15.0289 42.856 15.1169 43.42 15.1169 44.052C15.1169 44.692 15.0289 45.264 14.8529 45.768C14.6849 46.272 14.4449 46.7 14.1329 47.052C13.8209 47.404 13.4449 47.676 13.0049 47.868C12.5729 48.052 12.0929 48.144 11.5649 48.144ZM11.5649 46.62C12.1009 46.62 12.5249 46.392 12.8369 45.936C13.1489 45.472 13.3049 44.844 13.3049 44.052C13.3049 43.268 13.1489 42.656 12.8369 42.216C12.5249 41.776 12.1009 41.556 11.5649 41.556C11.0289 41.556 10.6049 41.776 10.2929 42.216C9.98094 42.656 9.82494 43.268 9.82494 44.052C9.82494 44.844 9.98094 45.472 10.2929 45.936C10.6049 46.392 11.0289 46.62 11.5649 46.62ZM17.0881 48V40.176H22.0201V41.664H18.8521V43.476H21.5641V44.964H18.8521V48H17.0881ZM23.881 48V40.176H28.813V41.664H25.645V43.476H28.357V44.964H25.645V48H23.881ZM30.266 45.588V44.34H33.218V45.588H30.266ZM37.23 48.144C36.718 48.144 36.206 48.052 35.694 47.868C35.19 47.676 34.738 47.392 34.338 47.016L35.346 45.804C35.626 46.044 35.934 46.24 36.27 46.392C36.614 46.544 36.95 46.62 37.278 46.62C37.646 46.62 37.918 46.552 38.094 46.416C38.278 46.28 38.37 46.096 38.37 45.864C38.37 45.744 38.342 45.64 38.286 45.552C38.238 45.464 38.162 45.388 38.058 45.324C37.962 45.252 37.842 45.188 37.698 45.132C37.562 45.068 37.41 45 37.242 44.928L36.222 44.496C36.022 44.416 35.826 44.312 35.634 44.184C35.45 44.056 35.282 43.908 35.13 43.74C34.986 43.564 34.87 43.364 34.782 43.14C34.694 42.908 34.65 42.648 34.65 42.36C34.65 42.04 34.718 41.74 34.854 41.46C34.99 41.172 35.182 40.924 35.43 40.716C35.678 40.5 35.97 40.332 36.306 40.212C36.65 40.092 37.026 40.032 37.434 40.032C37.89 40.032 38.338 40.12 38.778 40.296C39.226 40.472 39.618 40.728 39.954 41.064L39.054 42.18C38.798 41.98 38.542 41.828 38.286 41.724C38.03 41.612 37.746 41.556 37.434 41.556C37.13 41.556 36.886 41.62 36.702 41.748C36.526 41.868 36.438 42.04 36.438 42.264C36.438 42.384 36.466 42.488 36.522 42.576C36.586 42.656 36.67 42.732 36.774 42.804C36.886 42.868 37.014 42.932 37.158 42.996C37.302 43.052 37.458 43.116 37.626 43.188L38.634 43.596C39.114 43.788 39.49 44.052 39.762 44.388C40.042 44.724 40.182 45.168 40.182 45.72C40.182 46.048 40.114 46.36 39.978 46.656C39.85 46.944 39.658 47.2 39.402 47.424C39.154 47.64 38.846 47.816 38.478 47.952C38.11 48.08 37.694 48.144 37.23 48.144ZM42.0099 48V40.176H43.7739V48H42.0099ZM47.6433 48V41.664H45.4953V40.176H51.5673V41.664H49.4193V48H47.6433ZM53.2873 48V40.176H58.1833V41.664H55.0513V43.236H57.7153V44.712H55.0513V46.512H58.3033V48H53.2873ZM63.2638 48V40.176H68.1598V41.664H65.0278V43.236H67.6918V44.712H65.0278V46.512H68.2798V48H63.2638ZM69.5461 48L71.7181 43.98L69.6781 40.176H71.6461L72.3301 41.652C72.4181 41.836 72.5061 42.032 72.5941 42.24C72.6821 42.44 72.7821 42.664 72.8941 42.912H72.9421C73.0301 42.664 73.1141 42.44 73.1941 42.24C73.2821 42.032 73.3661 41.836 73.4461 41.652L74.0701 40.176H75.9541L73.9261 44.064L76.0861 48H74.1181L73.3381 46.404C73.2421 46.196 73.1461 45.992 73.0501 45.792C72.9621 45.584 72.8621 45.36 72.7501 45.12H72.7021C72.6141 45.36 72.5261 45.584 72.4381 45.792C72.3501 45.992 72.2621 46.196 72.1741 46.404L71.4421 48H69.5461ZM80.5943 48.144C80.0983 48.144 79.6303 48.06 79.1903 47.892C78.7503 47.716 78.3623 47.46 78.0263 47.124C77.6983 46.788 77.4383 46.372 77.2463 45.876C77.0543 45.372 76.9583 44.792 76.9583 44.136C76.9583 43.488 77.0583 42.912 77.2583 42.408C77.4583 41.896 77.7263 41.464 78.0623 41.112C78.3983 40.76 78.7903 40.492 79.2383 40.308C79.6863 40.124 80.1583 40.032 80.6543 40.032C81.1583 40.032 81.6103 40.136 82.0103 40.344C82.4103 40.544 82.7423 40.78 83.0063 41.052L82.0703 42.18C81.8703 41.996 81.6583 41.848 81.4343 41.736C81.2183 41.616 80.9703 41.556 80.6903 41.556C80.4263 41.556 80.1743 41.616 79.9342 41.736C79.7023 41.848 79.4983 42.012 79.3223 42.228C79.1543 42.444 79.0183 42.708 78.9143 43.02C78.8183 43.332 78.7703 43.684 78.7703 44.076C78.7703 44.884 78.9423 45.512 79.2863 45.96C79.6303 46.4 80.0903 46.62 80.6663 46.62C80.9863 46.62 81.2703 46.552 81.5183 46.416C81.7743 46.272 81.9983 46.096 82.1903 45.888L83.1263 46.992C82.4703 47.76 81.6263 48.144 80.5943 48.144ZM84.8146 48V40.176H86.5786V46.512H89.6746V48H84.8146ZM94.1643 48.144C93.1483 48.144 92.3723 47.844 91.8363 47.244C91.3003 46.644 91.0323 45.688 91.0323 44.376V40.176H92.8083V44.556C92.8083 45.324 92.9243 45.86 93.1562 46.164C93.3883 46.468 93.7243 46.62 94.1643 46.62C94.6043 46.62 94.9443 46.468 95.1843 46.164C95.4243 45.86 95.5443 45.324 95.5443 44.556V40.176H97.2483V44.376C97.2483 45.688 96.9843 46.644 96.4563 47.244C95.9363 47.844 95.1723 48.144 94.1643 48.144ZM101.832 48.144C101.32 48.144 100.808 48.052 100.296 47.868C99.7915 47.676 99.3395 47.392 98.9395 47.016L99.9475 45.804C100.228 46.044 100.536 46.24 100.872 46.392C101.216 46.544 101.552 46.62 101.88 46.62C102.248 46.62 102.52 46.552 102.696 46.416C102.88 46.28 102.972 46.096 102.972 45.864C102.972 45.744 102.944 45.64 102.888 45.552C102.84 45.464 102.764 45.388 102.66 45.324C102.564 45.252 102.444 45.188 102.3 45.132C102.164 45.068 102.012 45 101.844 44.928L100.824 44.496C100.624 44.416 100.428 44.312 100.236 44.184C100.052 44.056 99.8835 43.908 99.7315 43.74C99.5875 43.564 99.4715 43.364 99.3835 43.14C99.2955 42.908 99.2515 42.648 99.2515 42.36C99.2515 42.04 99.3195 41.74 99.4555 41.46C99.5915 41.172 99.7835 40.924 100.032 40.716C100.28 40.5 100.572 40.332 100.908 40.212C101.252 40.092 101.628 40.032 102.036 40.032C102.492 40.032 102.94 40.12 103.38 40.296C103.828 40.472 104.22 40.728 104.556 41.064L103.656 42.18C103.4 41.98 103.144 41.828 102.888 41.724C102.632 41.612 102.348 41.556 102.036 41.556C101.732 41.556 101.488 41.62 101.304 41.748C101.128 41.868 101.04 42.04 101.04 42.264C101.04 42.384 101.068 42.488 101.124 42.576C101.188 42.656 101.272 42.732 101.376 42.804C101.488 42.868 101.616 42.932 101.76 42.996C101.904 43.052 102.06 43.116 102.228 43.188L103.236 43.596C103.716 43.788 104.092 44.052 104.364 44.388C104.644 44.724 104.784 45.168 104.784 45.72C104.784 46.048 104.716 46.36 104.58 46.656C104.452 46.944 104.26 47.2 104.004 47.424C103.756 47.64 103.448 47.816 103.08 47.952C102.712 48.08 102.296 48.144 101.832 48.144ZM106.612 48V40.176H108.376V48H106.612ZM112.077 48L109.713 40.176H111.585L112.521 43.824C112.641 44.256 112.745 44.676 112.833 45.084C112.929 45.484 113.037 45.9 113.157 46.332H113.205C113.317 45.9 113.421 45.484 113.517 45.084C113.613 44.676 113.717 44.256 113.829 43.824L114.753 40.176H116.553L114.201 48H112.077ZM117.889 48V40.176H122.785V41.664H119.653V43.236H122.317V44.712H119.653V46.512H122.905V48H117.889Z" fill="#0075C9"/>
</svg>
